<mxfile>
    <diagram id="8Tfy1XMqcwrYswBXHkJz" name="第 1 页">
        <mxGraphModel dx="1032" dy="790" grid="1" gridSize="10" guides="1" tooltips="1" connect="1" arrows="1" fold="1" page="1" pageScale="1" pageWidth="1000" pageHeight="800" math="0" shadow="0">
            <root>
                <mxCell id="0"/>
                <mxCell id="1" parent="0"/>
                <mxCell id="2" value="3" style="rounded=0;whiteSpace=wrap;html=1;" vertex="1" parent="1">
                    <mxGeometry x="160" y="350" width="120" height="20" as="geometry"/>
                </mxCell>
                <mxCell id="3" value="5" style="rounded=0;whiteSpace=wrap;html=1;" vertex="1" parent="1">
                    <mxGeometry x="280" y="350" width="200" height="20" as="geometry"/>
                </mxCell>
                <mxCell id="4" value="1" style="rounded=0;whiteSpace=wrap;html=1;" vertex="1" parent="1">
                    <mxGeometry x="480" y="350" width="40" height="20" as="geometry"/>
                </mxCell>
                <mxCell id="5" value="1" style="rounded=0;whiteSpace=wrap;html=1;" vertex="1" parent="1">
                    <mxGeometry x="520" y="350" width="40" height="20" as="geometry"/>
                </mxCell>
                <mxCell id="7" value="1" style="rounded=0;whiteSpace=wrap;html=1;" vertex="1" parent="1">
                    <mxGeometry x="520" y="250" width="40" height="20" as="geometry"/>
                </mxCell>
                <mxCell id="9" value="2" style="rounded=0;whiteSpace=wrap;html=1;" vertex="1" parent="1">
                    <mxGeometry x="480" y="290" width="80" height="20" as="geometry"/>
                </mxCell>
                <mxCell id="10" value="4" style="rounded=0;whiteSpace=wrap;html=1;" vertex="1" parent="1">
                    <mxGeometry x="320" y="290" width="160" height="20" as="geometry"/>
                </mxCell>
                <mxCell id="11" value="4" style="rounded=0;whiteSpace=wrap;html=1;" vertex="1" parent="1">
                    <mxGeometry x="160" y="290" width="160" height="20" as="geometry"/>
                </mxCell>
                <mxCell id="12" value="5" style="rounded=0;whiteSpace=wrap;html=1;" vertex="1" parent="1">
                    <mxGeometry x="360" y="310" width="200" height="20" as="geometry"/>
                </mxCell>
                <mxCell id="13" value="5" style="rounded=0;whiteSpace=wrap;html=1;" vertex="1" parent="1">
                    <mxGeometry x="160" y="310" width="200" height="20" as="geometry"/>
                </mxCell>
                <mxCell id="14" value="2" style="rounded=0;whiteSpace=wrap;html=1;" vertex="1" parent="1">
                    <mxGeometry x="480" y="330" width="80" height="20" as="geometry"/>
                </mxCell>
                <mxCell id="15" value="3" style="rounded=0;whiteSpace=wrap;html=1;" vertex="1" parent="1">
                    <mxGeometry x="360" y="330" width="120" height="20" as="geometry"/>
                </mxCell>
                <mxCell id="16" value="3" style="rounded=0;whiteSpace=wrap;html=1;" vertex="1" parent="1">
                    <mxGeometry x="240" y="330" width="120" height="20" as="geometry"/>
                </mxCell>
                <mxCell id="17" value="2" style="rounded=0;whiteSpace=wrap;html=1;" vertex="1" parent="1">
                    <mxGeometry x="160" y="330" width="80" height="20" as="geometry"/>
                </mxCell>
                <mxCell id="20" value="1" style="rounded=0;whiteSpace=wrap;html=1;" vertex="1" parent="1">
                    <mxGeometry x="480" y="250" width="40" height="20" as="geometry"/>
                </mxCell>
                <mxCell id="21" value="3" style="rounded=0;whiteSpace=wrap;html=1;" vertex="1" parent="1">
                    <mxGeometry x="440" y="270" width="120" height="20" as="geometry"/>
                </mxCell>
                <mxCell id="22" value="3" style="rounded=0;whiteSpace=wrap;html=1;" vertex="1" parent="1">
                    <mxGeometry x="320" y="270" width="120" height="20" as="geometry"/>
                </mxCell>
                <mxCell id="23" value="3" style="rounded=0;whiteSpace=wrap;html=1;" vertex="1" parent="1">
                    <mxGeometry x="200" y="270" width="120" height="20" as="geometry"/>
                </mxCell>
                <mxCell id="24" value="1" style="rounded=0;whiteSpace=wrap;html=1;" vertex="1" parent="1">
                    <mxGeometry x="160" y="270" width="40" height="20" as="geometry"/>
                </mxCell>
                <mxCell id="25" value="6" style="rounded=0;whiteSpace=wrap;html=1;" vertex="1" parent="1">
                    <mxGeometry x="240" y="250" width="240" height="20" as="geometry"/>
                </mxCell>
                <mxCell id="26" value="1" style="rounded=0;whiteSpace=wrap;html=1;" vertex="1" parent="1">
                    <mxGeometry x="200" y="250" width="40" height="20" as="geometry"/>
                </mxCell>
                <mxCell id="27" value="1" style="rounded=0;whiteSpace=wrap;html=1;" vertex="1" parent="1">
                    <mxGeometry x="160" y="250" width="40" height="20" as="geometry"/>
                </mxCell>
            </root>
        </mxGraphModel>
    </diagram>
</mxfile>